<?xml version="1.0" standalone="no"?>
<!DOCTYPE svg PUBLIC "-//W3C//DTD SVG 20010904//EN"
 "http://www.w3.org/TR/2001/REC-SVG-20010904/DTD/svg10.dtd">
<svg version="1.0" xmlns="http://www.w3.org/2000/svg"
 width="1460.000000pt" height="1460.000000pt" viewBox="0 0 1460.000000 1460.000000"
 preserveAspectRatio="xMidYMid meet">
<metadata>
Created by potrace 1.11, written by Peter Selinger 2001-2013
</metadata>
<g transform="translate(0.000000,1460.000000) scale(0.100000,-0.100000)"
fill="#000000" stroke="none">
<path d="M3750 14589 c0 -3 -15 -6 -32 -6 -18 0 -50 -3 -70 -6 -21 -4 -53 -9
-70 -12 -42 -7 -72 -13 -75 -15 -4 -3 -7 -4 -58 -14 -22 -4 -46 -12 -52 -18
-7 -6 -13 -8 -13 -4 0 3 -16 0 -35 -8 -19 -8 -35 -13 -35 -10 0 2 -13 -2 -30
-11 -16 -9 -30 -12 -30 -8 0 5 -4 4 -8 -2 -6 -9 -61 -33 -87 -38 -5 -1 -12 -4
-15 -7 -3 -3 -42 -23 -87 -45 -46 -21 -83 -43 -83 -47 0 -4 -6 -8 -14 -8 -8 0
-21 -6 -28 -12 -7 -7 -24 -19 -38 -26 -32 -16 -161 -113 -230 -172 -76 -65
-189 -182 -243 -253 -12 -16 -26 -34 -32 -40 -30 -35 -65 -87 -65 -96 0 -6 -3
-11 -7 -11 -10 0 -51 -70 -116 -195 -72 -139 -120 -272 -163 -446 l-29 -114
-2 -5112 -3 -5111 25 2 c14 2 25 -1 25 -6 0 -5 5 -6 10 -3 15 9 93 10 108 1 7
-4 12 -3 12 3 0 8 10 8 40 1 19 -4 262 0 269 5 5 3 13 0 17 -6 4 -8 9 -7 15 2
5 8 9 9 9 4 0 -12 129 -13 148 -1 6 4 12 3 12 -2 0 -12 32 -12 48 1 6 5 12 6
12 1 0 -8 284 -11 1498 -17 233 -1 363 2 366 8 3 6 5 6 5 -1 1 -6 19 -9 44 -7
23 1 166 5 317 7 382 7 584 18 765 41 33 4 71 9 85 10 14 2 25 4 25 5 0 1 14
3 30 5 27 3 83 12 124 20 20 4 113 26 169 39 9 3 36 11 59 19 22 9 44 13 47
10 3 -4 6 -1 6 5 0 7 3 11 8 10 9 -3 49 10 87 27 17 8 39 17 50 21 25 9 23 8
63 23 17 7 32 16 32 20 0 4 18 14 40 21 22 7 40 17 40 22 0 4 5 8 10 8 6 0 35
16 65 35 30 19 55 32 55 29 0 -3 7 2 16 11 9 8 44 34 77 57 110 75 320 259
435 381 l36 38 39 -43 c112 -125 250 -258 267 -258 6 0 8 -4 5 -10 -3 -5 -1
-10 5 -10 6 0 22 -10 36 -22 46 -42 60 -53 104 -83 25 -16 47 -33 48 -38 2 -4
8 -5 13 -1 5 3 9 0 9 -5 0 -6 5 -11 10 -11 6 0 29 -13 51 -30 23 -16 45 -27
50 -24 5 3 9 1 9 -3 0 -7 78 -52 100 -58 3 -1 30 -13 60 -27 30 -14 66 -29 80
-33 14 -4 30 -12 37 -17 7 -5 16 -7 22 -4 5 3 11 2 13 -4 1 -5 14 -11 28 -14
14 -2 26 -5 28 -7 1 -1 5 -2 10 -3 4 -1 12 -5 19 -9 6 -4 23 -8 37 -9 14 -1
26 -5 26 -9 0 -3 6 -6 13 -6 6 0 26 -4 42 -8 17 -4 38 -7 48 -8 9 -1 17 -5 17
-10 0 -4 6 -7 13 -6 10 2 43 -3 112 -18 19 -4 33 -6 95 -17 14 -3 25 -5 25 -6
0 -1 18 -3 40 -5 22 -2 58 -7 80 -10 22 -3 63 -8 90 -11 28 -2 70 -7 95 -10
55 -6 210 -16 268 -17 23 0 42 -5 42 -9 0 -5 5 -6 12 -2 10 6 62 9 71 4 1 -1
14 -3 30 -5 19 -3 25 0 20 8 -5 9 -3 9 8 1 8 -6 57 -10 111 -10 54 1 98 -1 98
-4 0 -10 55 -5 62 5 5 6 8 5 8 -4 0 -10 3 -11 14 -2 8 7 16 8 19 4 3 -4 224
-8 491 -8 267 0 486 -3 486 -7 0 -4 13 -3 29 2 19 5 33 4 40 -3 8 -8 11 -8 11
2 0 7 5 9 11 6 5 -4 153 -8 327 -10 174 -2 317 -4 317 -5 0 0 110 -3 245 -4
135 -2 247 -5 250 -6 3 -1 10 -1 15 0 32 7 55 6 55 -2 0 -5 9 -4 20 2 14 8 26
8 40 0 14 -8 20 -8 20 0 0 6 5 8 13 3 18 -11 67 -10 67 1 0 6 5 5 11 -1 8 -8
20 -8 34 -3 13 5 26 6 29 3 4 -4 60 -7 126 -8 l120 -1 -3 5150 c-1 2833 -5
5158 -8 5166 -3 8 -9 33 -14 55 -16 83 -68 259 -97 325 -30 71 -116 242 -138
275 -10 17 -26 44 -35 62 -9 17 -25 39 -36 49 -10 9 -19 23 -19 30 0 7 -6 17
-13 21 -7 4 -20 19 -29 33 -8 14 -30 41 -47 60 -17 19 -31 39 -31 43 0 5 -4 5
-10 2 -5 -3 -10 -2 -10 4 0 36 -358 341 -400 341 -6 0 -10 5 -10 10 0 6 -5 10
-12 10 -6 0 -19 6 -27 14 -22 20 -240 127 -263 129 -10 1 -18 5 -18 9 0 4 -8
8 -18 8 -10 0 -22 4 -28 9 -5 5 -20 11 -34 13 -14 1 -31 9 -38 16 -8 7 -18 10
-23 6 -6 -3 -16 0 -24 6 -8 7 -22 10 -30 6 -8 -3 -15 -2 -15 3 0 4 -6 8 -12 9
-16 1 -53 10 -53 12 0 1 -9 3 -20 5 -11 1 -35 5 -52 9 -78 15 -101 18 -148 21
-27 2 -52 5 -55 6 -14 6 -7080 4 -7080 -2z"/>
<path d="M8749 2422 c-115 -87 -214 -182 -225 -214 -3 -10 -9 -18 -14 -18 -9
0 -54 -110 -64 -155 -6 -31 -13 -73 -21 -135 -3 -19 -4 -82 -4 -140 2 -224 -2
-599 -7 -686 -7 -140 -16 -192 -55 -344 -45 -171 -93 -288 -142 -346 -45 -53
-167 -166 -218 -202 -11 -7 -17 -17 -15 -21 6 -8 82 -5 98 5 7 4 8 3 4 -4 -5
-9 -1 -9 16 -3 14 5 31 5 40 0 9 -5 19 -6 21 -2 3 5 42 8 86 8 45 0 81 4 81 9
0 5 6 3 13 -3 8 -6 17 -8 21 -4 4 4 23 8 44 9 37 2 144 12 172 17 8 1 21 6 28
10 6 5 12 6 12 3 0 -2 15 0 33 5 17 6 41 12 52 15 32 8 38 10 68 22 73 30 136
62 142 72 3 5 11 8 16 5 5 -4 9 -2 9 3 0 5 21 23 48 40 99 65 188 169 222 259
55 148 62 244 64 900 l2 538 58 140 c32 77 69 162 83 189 13 27 22 51 19 53
-2 3 -51 -42 -108 -99 -114 -114 -151 -175 -191 -316 -20 -74 -21 -98 -22
-572 -1 -434 -6 -594 -20 -650 -2 -8 -7 -37 -11 -65 -6 -46 -40 -144 -54 -155
-4 -3 -20 -29 -36 -57 -16 -29 -35 -53 -42 -53 -7 0 -11 -4 -7 -9 3 -5 -4 -12
-15 -16 -11 -3 -20 -11 -20 -17 0 -6 -3 -8 -6 -5 -4 4 -19 -2 -33 -12 -28 -20
-106 -56 -143 -66 -5 -2 -10 -4 -13 -5 -5 -3 -6 -3 -50 -15 -16 -4 -34 -10
-40 -14 -19 -11 -314 -7 -308 4 4 5 25 39 48 75 71 109 146 276 161 359 3 14
7 28 10 32 2 4 7 27 10 51 3 24 8 50 10 58 17 48 21 435 10 835 -6 235 3 303
57 425 14 32 132 237 154 268 20 28 16 28 -28 -6z"/>
<path d="M9643 2404 c-55 -58 -132 -163 -152 -207 -18 -40 -34 -106 -46 -192
-5 -40 -10 -202 -20 -675 -3 -135 -7 -276 -10 -315 -11 -175 -21 -292 -30
-355 -2 -14 -7 -47 -10 -75 -4 -27 -8 -57 -10 -65 -2 -8 -7 -31 -10 -50 -18
-107 -47 -194 -110 -322 -12 -26 -12 -27 4 -18 25 13 105 104 145 165 65 98
133 258 151 354 2 14 7 37 9 51 14 71 18 142 21 320 17 1093 16 1076 64 1245
22 77 43 148 46 158 11 26 -6 19 -42 -19z"/>
<path d="M12515 2376 c-33 -37 -77 -95 -98 -129 -76 -125 -86 -199 -92 -727
-3 -195 -7 -386 -9 -425 -15 -237 -18 -283 -21 -305 -2 -14 -6 -52 -10 -85 -5
-58 -9 -87 -20 -150 -3 -16 -8 -46 -11 -65 -3 -19 -7 -43 -10 -52 -3 -10 -7
-30 -10 -45 -8 -45 -24 -94 -56 -163 -38 -82 -49 -110 -43 -110 21 0 185 202
185 229 0 5 4 11 8 13 10 4 49 88 74 158 36 105 47 159 63 306 2 17 6 203 10
415 9 597 14 800 20 857 3 29 24 114 46 189 22 75 38 140 36 146 -1 5 -30 -21
-62 -57z"/>
<path d="M5734 2392 c-83 -101 -147 -214 -160 -288 -14 -79 -22 -214 -24 -439
-2 -347 -13 -690 -25 -800 -2 -22 -7 -76 -10 -120 -4 -44 -8 -91 -10 -105 -2
-14 -9 -63 -15 -110 -13 -103 -45 -244 -64 -285 -8 -16 -24 -55 -35 -85 l-21
-55 53 58 c53 57 68 79 127 190 31 58 84 205 94 262 30 159 30 150 41 895 10
626 9 605 56 779 38 138 39 141 31 140 -4 0 -21 -17 -38 -37z"/>
<path d="M10241 2405 c-19 -13 -38 -22 -43 -19 -4 3 -8 0 -8 -6 0 -6 -8 -14
-17 -17 -10 -4 -33 -18 -50 -31 -18 -13 -33 -21 -33 -16 0 4 -4 4 -9 -1 -10
-11 -18 -70 -46 -345 -9 -86 -8 -86 -50 -106 -63 -30 -122 -121 -210 -324 -16
-36 -34 -72 -40 -80 -16 -20 -66 -160 -57 -160 4 0 25 33 46 73 38 71 121 201
141 223 5 6 23 28 39 48 15 20 46 51 69 68 l40 32 -7 -75 c-4 -41 -9 -94 -11
-119 -21 -228 -22 -705 -1 -811 24 -126 104 -292 161 -337 13 -11 21 -22 18
-26 -3 -3 -1 -6 6 -6 7 0 27 -11 43 -26 26 -21 122 -76 138 -79 3 0 15 -6 28
-13 12 -7 22 -10 22 -7 0 3 11 -2 25 -11 14 -9 25 -14 25 -11 0 3 16 -1 35 -9
19 -8 35 -11 35 -8 0 4 7 1 15 -6 8 -7 15 -10 15 -7 0 3 15 1 33 -4 40 -13
125 -23 200 -23 31 -1 57 -5 57 -9 0 -5 6 -5 12 -1 7 5 42 9 78 10 36 1 65 3
65 4 0 1 20 3 45 5 41 2 101 10 185 22 17 2 44 6 60 8 17 1 31 4 33 5 1 1 10
3 20 4 9 1 23 5 30 9 6 5 17 5 22 2 6 -3 10 -2 10 3 0 5 6 9 13 10 44 5 70 12
82 22 8 7 15 9 15 5 0 -4 7 -1 17 6 9 8 18 13 20 12 1 -2 4 -3 6 -2 1 0 9 2
17 4 8 2 29 9 45 16 17 7 32 13 35 13 6 1 63 24 115 46 43 18 77 32 85 35 3 1
28 12 55 25 28 13 52 24 55 25 3 0 30 13 61 28 31 15 61 27 67 27 7 0 12 5 12
10 0 6 3 9 8 8 13 -3 92 37 92 47 0 6 -52 9 -142 9 -158 -2 -160 -2 -320 76
-60 28 -116 53 -125 55 -10 2 -18 4 -18 5 0 4 -46 11 -90 14 -45 3 -142 -18
-155 -34 -3 -3 -21 -16 -41 -28 -41 -25 -119 -109 -119 -129 0 -7 -4 -13 -8
-13 -4 0 -14 -17 -22 -37 -8 -21 -17 -42 -19 -47 -4 -9 51 28 82 56 23 20 89
53 100 50 4 -1 7 2 7 6 0 5 14 8 30 7 17 -1 30 2 30 6 0 4 17 7 38 6 20 -1 43
2 50 7 6 4 12 4 12 -1 0 -4 20 -8 45 -7 25 0 45 -3 45 -7 0 -4 9 -6 20 -4 11
2 20 0 20 -5 0 -5 6 -7 13 -4 7 2 30 -2 50 -11 20 -8 39 -15 42 -15 3 0 10 -2
17 -5 7 -2 22 -5 32 -7 38 -6 24 -24 -47 -58 -39 -19 -76 -35 -82 -35 -5 0
-16 -4 -22 -8 -7 -5 -17 -6 -22 -3 -5 4 -11 2 -13 -3 -1 -5 -16 -12 -33 -15
-33 -5 -69 -13 -112 -22 -16 -3 -37 -7 -48 -9 -11 -2 -20 -4 -20 -5 0 -1 -13
-4 -30 -6 -31 -3 -70 -11 -70 -14 0 -1 -16 -3 -35 -5 -19 -2 -51 -7 -70 -10
-19 -4 -46 -8 -60 -9 -14 -1 -30 -5 -37 -9 -6 -4 -15 -3 -18 3 -4 7 -11 7 -18
2 -13 -10 -219 -8 -282 3 -22 4 -49 8 -60 10 -11 1 -20 3 -20 4 0 2 -11 4 -25
7 -14 2 -32 7 -40 11 -8 3 -17 7 -20 7 -28 7 -130 53 -130 58 0 5 -7 8 -14 8
-21 0 -143 94 -193 149 -55 59 -116 176 -139 266 -26 100 -26 414 0 611 3 17
7 68 11 115 13 175 23 239 38 236 32 -6 39 -29 42 -140 3 -125 13 -158 68
-217 63 -68 137 -103 222 -104 25 -1 45 -5 45 -9 0 -4 9 -3 20 3 14 8 20 8 20
0 0 -6 5 -8 12 -4 7 5 37 9 68 10 45 3 151 23 195 37 6 2 22 7 38 12 15 4 27
11 27 17 0 5 4 7 9 3 5 -3 15 0 23 7 7 7 32 26 56 42 24 16 53 42 66 57 l23
26 36 -17 c20 -10 38 -15 41 -12 4 3 6 1 6 -4 0 -5 16 -9 35 -9 20 1 38 -2 41
-7 3 -5 11 -5 17 -1 7 4 23 8 37 9 14 1 26 3 28 4 1 1 7 4 12 5 6 1 12 4 15 5
3 1 8 3 13 4 8 2 51 28 107 66 77 52 117 67 173 65 63 -3 72 -12 143 -142 28
-51 52 -93 54 -93 1 0 21 24 43 53 22 30 47 60 55 68 24 25 29 55 11 70 -34
28 -102 126 -114 164 -7 22 -16 49 -20 61 -11 28 -6 120 7 136 6 7 14 23 17
35 8 24 7 24 -59 8 -45 -11 -62 -31 -70 -83 -14 -96 -26 -132 -46 -132 -11 0
-19 4 -19 10 0 5 -13 16 -29 24 -28 15 -29 14 -40 -12 -19 -45 -181 -204 -181
-178 0 4 -9 2 -20 -4 -28 -15 -113 -15 -141 1 -13 7 -27 12 -31 11 -5 -1 -8 3
-8 8 0 6 4 10 9 10 13 0 66 51 79 77 16 29 15 112 -1 143 -31 58 -84 99 -136
103 -11 1 -21 4 -21 7 0 3 -17 4 -37 3 -21 -1 -38 -2 -38 -3 0 -1 -25 -3 -55
-4 -30 -2 -55 -4 -55 -6 0 -1 -19 -2 -42 -3 -24 0 -43 -3 -43 -6 0 -4 -12 -7
-27 -8 -43 -2 -165 -13 -193 -16 -22 -3 -26 -11 -37 -73 -6 -38 -12 -84 -12
-103 -1 -28 1 -32 14 -21 8 6 19 9 24 6 5 -4 12 -3 15 2 13 21 206 -7 237 -34
9 -8 19 -11 22 -7 4 3 7 0 7 -7 0 -7 3 -11 6 -7 6 6 56 -27 101 -66 20 -17 22
-54 3 -42 -5 3 -13 -3 -19 -12 -6 -10 -11 -14 -11 -10 0 5 -12 0 -27 -10 -16
-11 -39 -24 -53 -31 -14 -6 -32 -16 -40 -21 -18 -11 -47 -22 -75 -28 -39 -9
-50 -11 -50 -13 0 -5 -70 -9 -172 -11 l-112 -2 -48 36 c-26 20 -56 46 -67 58
-33 39 -67 130 -72 193 -3 34 -10 75 -15 92 -13 42 -50 88 -74 92 -27 5 -27 4
-16 53 5 24 13 60 16 79 3 19 20 98 36 175 17 77 33 151 35 164 3 14 7 28 10
33 9 15 -11 7 -45 -17z m879 -517 c0 -4 6 -5 14 -2 8 3 17 0 21 -5 3 -6 10 -9
14 -7 10 7 51 -31 51 -47 0 -7 -11 -29 -25 -49 l-25 -37 -35 15 c-39 16 -134
65 -180 93 -16 10 -34 16 -40 13 -5 -3 -5 1 1 7 7 7 28 14 48 15 20 2 38 5 41
7 7 8 115 5 115 -3z"/>
<path d="M6746 2404 c-9 -8 -16 -13 -16 -9 0 10 -121 -85 -160 -125 -53 -56
-70 -79 -70 -95 0 -8 -4 -15 -9 -15 -15 0 -29 -92 -32 -209 -2 -73 -3 -76 -43
-116 -65 -64 -134 -145 -190 -220 -17 -22 -33 -42 -36 -45 -3 -3 -34 -44 -70
-92 -35 -48 -65 -86 -68 -84 -4 5 -3 634 2 666 6 39 44 181 60 228 8 23 12 42
9 42 -3 0 -32 -27 -64 -60 -31 -33 -55 -60 -52 -60 4 0 -2 -9 -12 -20 -26 -28
-62 -111 -70 -161 -13 -77 -14 -100 -14 -304 1 -737 -7 -913 -56 -1172 -13
-68 -65 -214 -85 -239 -6 -6 -7 -13 -4 -17 11 -11 174 181 174 206 0 2 12 31
27 63 15 33 28 64 30 69 1 6 11 44 22 85 27 102 29 132 30 387 l1 222 53 55
c28 31 86 92 127 137 116 127 178 189 188 189 6 0 13 8 16 17 5 12 10 13 17 6
11 -11 7 -898 -4 -973 -13 -87 -35 -178 -49 -204 -47 -88 -132 -150 -218 -160
-9 -1 -21 -5 -28 -10 -6 -4 -16 -5 -21 -2 -5 4 -11 2 -13 -4 -2 -6 -24 -11
-51 -13 -26 -1 -47 -5 -47 -10 0 -4 -3 -6 -7 -5 -5 1 -24 -4 -43 -11 -19 -8
-37 -15 -40 -16 -21 -6 -80 -49 -80 -58 0 -6 -3 -8 -6 -4 -3 3 -16 -5 -29 -19
-12 -13 -26 -24 -31 -25 -5 0 -19 -13 -32 -29 l-23 -29 39 3 c21 1 43 5 48 8
5 3 21 5 37 4 15 -1 27 2 27 6 0 4 8 6 18 6 20 -1 71 8 127 22 22 6 54 13 70
16 17 3 35 10 42 16 7 5 17 7 23 3 5 -3 10 -1 10 4 0 6 3 10 8 9 4 -1 23 4 42
11 19 8 38 13 43 12 4 0 7 3 7 9 0 5 7 10 15 10 8 0 15 5 15 10 0 6 5 10 10
10 37 0 120 134 151 243 14 49 29 70 30 41 2 -60 36 -182 63 -229 45 -76 227
-221 250 -198 3 3 6 1 6 -6 0 -7 5 -9 10 -6 6 4 18 1 27 -7 14 -11 16 -11 8 1
-6 11 -5 12 6 5 15 -9 139 -13 139 -4 0 3 19 6 43 7 41 2 112 10 112 13 0 1
16 3 35 5 41 4 91 13 142 24 20 5 39 6 43 3 3 -3 5 -1 5 4 0 6 11 11 25 12 46
3 55 5 55 13 0 4 8 6 18 5 9 -2 20 1 23 6 3 5 12 11 20 12 42 8 69 19 69 28 0
5 4 7 9 4 5 -4 11 0 14 6 3 9 8 6 13 -7 13 -32 28 -42 59 -41 32 1 121 41 144
63 11 12 16 11 32 -3 28 -25 98 -28 135 -5 49 30 85 114 91 211 l5 79 -31 -9
c-17 -5 -35 -9 -39 -9 -4 0 -9 -29 -12 -64 -5 -66 -25 -109 -61 -127 -36 -20
-44 -8 -44 71 l0 74 -35 1 c-48 1 -52 -3 -35 -36 8 -16 13 -39 11 -52 -3 -13
-5 -26 -5 -30 -1 -12 -55 -58 -74 -64 -12 -4 -27 4 -44 20 -25 26 -27 44 -7
90 7 18 4 18 -27 -4 -19 -13 -37 -29 -41 -35 -5 -6 -8 -6 -8 0 0 6 -3 5 -8 -1
-7 -12 -176 -82 -213 -89 -11 -2 -30 -8 -42 -12 -12 -4 -30 -8 -39 -9 -10 -1
-19 -2 -20 -4 -8 -5 -113 -22 -150 -24 -10 0 -18 -5 -18 -10 0 -6 -5 -5 -12 2
-8 8 -17 8 -31 1 -15 -8 -18 -8 -12 1 6 9 3 9 -11 2 -24 -13 -36 -13 -51 0 -9
7 -13 7 -13 -1 0 -7 -5 -9 -12 -5 -7 4 -24 9 -38 10 -23 1 -34 4 -80 22 -8 3
-18 4 -22 4 -5 -1 -8 2 -8 8 0 5 -7 10 -15 10 -8 0 -15 5 -15 10 0 6 -5 10
-11 10 -6 0 -29 17 -51 38 -119 112 -204 296 -218 472 -6 65 -6 717 -1 843 3
75 6 89 23 98 16 8 19 8 13 -1 -6 -9 -3 -9 13 -1 14 7 23 8 27 1 4 -6 10 -8
15 -5 19 12 42 -46 46 -113 8 -153 40 -283 84 -344 11 -15 20 -31 20 -35 0
-16 91 -65 142 -77 75 -17 238 -10 273 12 6 4 21 8 34 10 14 2 34 8 45 15 12
6 23 12 26 12 7 1 61 32 161 92 30 18 58 32 63 32 5 -1 12 4 15 9 3 6 23 13
44 17 33 6 37 5 37 -13 0 -31 21 -74 49 -99 23 -20 75 -35 86 -24 3 3 12 6 19
7 31 4 104 44 136 74 33 32 75 90 113 160 31 56 50 75 79 78 16 2 35 -3 43
-12 9 -9 21 -19 28 -23 16 -11 67 -79 67 -91 0 -5 6 -15 14 -21 12 -10 24 1
68 55 l54 66 -43 116 c-34 89 -44 131 -46 183 -2 61 -3 66 -18 53 -9 -8 -29
-38 -44 -66 -22 -41 -29 -65 -28 -108 l1 -56 -42 -1 c-22 -1 -48 -3 -56 -5
-19 -5 -77 -37 -68 -38 4 0 -4 -11 -17 -25 -13 -14 -30 -41 -39 -59 -9 -18
-22 -39 -31 -46 -8 -7 -15 -17 -15 -22 0 -5 -14 -22 -30 -38 -42 -41 -81 -46
-131 -18 -50 28 -59 58 -45 151 5 32 4 47 -4 47 -6 0 -8 -4 -5 -10 3 -5 3 -10
-2 -10 -8 0 -29 -17 -100 -80 -18 -15 -33 -26 -33 -23 0 3 -14 -7 -32 -22 -55
-47 -233 -130 -303 -142 -55 -9 -140 -9 -152 0 -9 6 -13 6 -13 -1 0 -6 -10 -9
-22 -6 -43 9 -93 17 -105 17 -7 0 -13 5 -13 10 0 6 -3 8 -6 4 -4 -3 -21 1 -38
10 -17 10 -34 16 -38 15 -17 -4 -75 68 -87 108 -7 24 -15 89 -17 145 -8 176
-34 245 -91 245 -13 0 -23 5 -23 11 0 6 -5 7 -12 2 -7 -4 -25 -8 -40 -9 -35
-1 -35 12 -7 116 11 41 25 92 30 113 12 47 38 101 87 174 20 31 42 63 47 72 6
9 15 19 20 23 6 5 6 8 -2 8 -6 0 -19 -7 -27 -16z"/>
<path d="M4915 2383 c-176 -151 -246 -257 -270 -403 -3 -19 -8 -48 -11 -64 -4
-16 -8 -228 -9 -470 -3 -449 -4 -484 -31 -636 -24 -130 -77 -315 -112 -385
-24 -48 -70 -105 -154 -188 -43 -43 -78 -80 -78 -82 0 -8 237 2 250 10 9 5 11
4 6 -3 -5 -9 0 -9 18 -2 18 6 26 6 26 -1 0 -6 6 -7 13 -2 6 4 26 9 42 10 105
8 175 20 213 34 13 5 27 7 32 4 5 -3 10 0 12 5 2 6 17 13 33 16 16 3 32 8 35
12 3 4 21 15 40 24 84 41 119 68 211 161 74 75 111 142 139 252 29 118 33 190
35 770 2 421 5 571 15 600 34 108 101 288 121 327 20 40 6 36 -35 -9 -128
-139 -155 -180 -190 -283 -41 -124 -49 -198 -46 -430 5 -486 1 -770 -14 -845
-2 -11 -7 -42 -10 -70 -9 -68 -23 -109 -62 -185 -41 -79 -99 -141 -145 -155
-11 -4 -19 -10 -19 -15 0 -4 -10 -10 -22 -13 -13 -3 -48 -13 -78 -22 -30 -9
-79 -18 -108 -20 -29 -2 -57 -7 -62 -10 -6 -3 -10 0 -10 7 0 8 -3 9 -8 3 -4
-6 -27 -10 -52 -10 -25 0 -49 -2 -55 -5 -43 -20 -43 -7 0 57 101 147 145 286
170 538 15 151 20 489 9 655 -21 335 1 498 86 652 5 10 28 52 50 94 22 43 45
83 51 91 17 20 7 15 -26 -14z"/>
<path d="M7509 2381 c-17 -13 -24 -30 -25 -57 -2 -70 -14 -110 -39 -132 -30
-26 -32 -26 -51 -8 -8 9 -14 35 -14 65 0 27 -3 52 -8 55 -14 9 -47 -19 -50
-44 -9 -73 -50 -142 -80 -132 -15 5 -34 74 -28 104 2 13 11 41 20 62 16 37 15
40 -3 57 -19 18 -20 17 -51 -49 -19 -41 -32 -82 -32 -106 1 -109 46 -185 83
-140 6 8 17 14 24 14 7 0 30 17 52 38 37 34 41 36 57 21 22 -21 89 -15 120 10
9 7 16 10 16 6 0 -5 14 11 30 34 37 50 48 113 30 176 -7 25 -16 45 -20 45 -4
0 -18 -9 -31 -19z"/>
<path d="M3098 2369 c-25 -18 -28 -27 -28 -75 0 -59 -10 -86 -45 -121 -19 -20
-24 -21 -40 -9 -14 10 -19 27 -19 70 -1 53 -2 56 -25 53 -21 -3 -26 -12 -36
-58 -12 -58 -26 -89 -48 -107 -44 -37 -73 57 -43 139 14 41 14 50 1 75 l-14
28 -22 -50 c-38 -87 -49 -126 -49 -168 0 -53 19 -88 49 -93 30 -4 101 15 101
27 0 6 6 10 13 10 7 0 18 9 25 20 l12 20 22 -20 c12 -11 24 -17 27 -13 3 5 17
8 31 7 105 -3 176 141 127 257 l-12 28 -27 -20z"/>
<path d="M4306 2378 c4 -5 0 -9 -7 -7 -32 4 -45 -4 -96 -56 -46 -49 -68 -84
-45 -73 4 2 31 14 60 28 28 13 52 26 52 30 0 14 68 10 80 -5 17 -20 5 -77 -20
-100 -11 -10 -20 -25 -20 -34 0 -14 2 -14 10 -1 5 8 10 12 10 7 0 -11 85 75
98 99 23 44 -6 99 -57 110 -55 11 -71 11 -65 2z"/>
<path d="M12248 2361 c-21 -15 -35 -30 -33 -33 3 -2 -6 -11 -20 -18 -13 -7
-27 -22 -31 -32 -3 -10 -9 -16 -13 -14 -11 7 -98 -142 -110 -190 -11 -42 -17
-118 -26 -359 -15 -367 -19 -403 -73 -606 -26 -97 -79 -195 -147 -273 -22 -24
-82 -102 -90 -115 -5 -9 5 -5 22 7 17 12 34 22 38 22 15 0 133 88 180 134 128
128 161 215 190 511 5 48 13 241 20 457 5 155 17 245 38 298 3 8 15 42 25 76
22 68 47 120 70 147 23 26 2 20 -40 -12z"/>
<path d="M7974 2358 c-3 -4 -10 -6 -15 -3 -5 4 -9 1 -9 -4 0 -6 -6 -11 -13
-11 -22 0 -137 -130 -137 -154 0 -3 40 15 89 40 112 56 134 61 161 32 34 -37
23 -81 -37 -148 -34 -37 -28 -44 15 -15 20 14 45 28 55 31 9 4 17 11 17 16 0
6 8 18 18 27 23 21 43 58 48 88 7 36 -30 90 -67 98 -50 11 -119 13 -125 3z"/>
<path d="M6780 2289 c0 -7 -3 -10 -6 -6 -3 3 -13 -1 -22 -9 -10 -7 -26 -20
-36 -27 -19 -14 -19 -15 4 -53 13 -21 31 -49 41 -61 l17 -23 41 45 c22 24 41
48 41 53 0 4 -18 27 -40 51 -22 23 -40 37 -40 30z"/>
<path d="M6946 2265 c-15 -14 -31 -25 -37 -25 -5 0 -9 -7 -9 -15 0 -8 5 -15
10 -15 6 0 14 -8 18 -18 11 -27 46 -82 52 -82 3 0 24 22 47 49 l42 49 -38 41
c-21 22 -42 41 -48 41 -6 0 -22 -11 -37 -25z"/>
<path d="M10300 2225 c-18 -13 -38 -26 -44 -28 -10 -3 7 -51 24 -67 3 -3 15
-20 26 -38 l21 -33 44 50 c24 28 47 51 51 51 4 0 19 -20 34 -45 30 -51 41 -54
69 -19 11 14 29 34 39 45 20 19 19 19 -10 51 -52 57 -56 59 -81 36 -13 -12
-23 -17 -23 -12 0 5 -9 -4 -19 -19 l-19 -29 -39 41 -40 40 -33 -24z"/>
<path d="M2327 2206 l-37 -32 32 -57 c18 -31 36 -56 39 -57 4 0 23 20 43 45
l37 45 -19 28 c-11 15 -28 35 -39 44 -17 16 -20 15 -56 -16z"/>
<path d="M2502 2190 c-12 -12 -22 -17 -22 -13 0 4 -5 0 -10 -9 -11 -18 -4 -38
34 -101 l23 -38 42 52 41 52 -30 30 c-17 17 -30 34 -30 39 0 15 -26 8 -48 -12z"/>
<path d="M4428 2107 c-7 -8 -23 -19 -36 -26 -12 -6 -22 -16 -22 -22 0 -9 70
-119 76 -119 8 0 54 52 54 60 0 6 4 10 9 10 23 0 20 35 -6 62 -40 42 -59 51
-75 35z"/>
<path d="M3464 2095 c-36 -12 -82 -41 -107 -66 -17 -18 -16 -19 37 -16 31 2
59 6 62 10 4 4 13 7 20 7 7 0 25 5 41 12 61 26 100 15 102 -29 1 -14 -64 -37
-84 -29 -8 3 -15 0 -15 -7 0 -8 -3 -8 -8 -2 -4 6 -37 10 -73 9 -80 -2 -123
-23 -150 -76 -18 -36 -63 -87 -77 -89 -4 0 -16 -3 -27 -5 -11 -2 -39 -6 -63
-9 -23 -2 -46 -6 -50 -9 -5 -3 -14 -1 -22 4 -8 5 -22 5 -32 -1 -10 -5 -18 -6
-18 -1 0 5 -11 8 -24 7 -13 -2 -29 1 -37 6 -12 8 -11 12 5 24 10 8 23 12 27 9
5 -3 9 -1 9 3 0 5 10 10 23 10 34 2 122 11 122 13 0 1 9 3 20 4 34 5 99 25
115 36 11 8 7 10 -17 6 -18 -2 -33 0 -33 5 0 6 -5 7 -12 3 -9 -6 -102 -14
-215 -17 -18 -1 -33 -5 -33 -10 0 -5 -7 -6 -16 -3 -9 4 -23 1 -30 -5 -8 -6
-14 -9 -14 -5 0 17 -60 -27 -66 -48 -7 -31 3 -66 21 -66 7 0 15 -5 17 -10 3
-9 67 -22 103 -21 116 2 216 16 226 32 3 6 8 10 10 10 12 -4 69 23 69 32 0 6
3 8 6 4 7 -7 21 4 70 52 28 27 45 35 82 37 26 2 63 6 82 10 19 3 46 7 60 7 14
1 28 6 31 10 3 5 13 9 22 11 9 1 29 13 46 25 26 20 31 31 31 67 0 62 -23 75
-126 72 -43 -1 -93 -7 -110 -13z"/>
<path d="M7313 1982 c-19 -12 -27 -60 -13 -77 11 -13 10 -20 0 -40 -7 -13 -17
-22 -21 -19 -4 2 -10 0 -13 -5 -7 -10 -62 -4 -87 10 -9 4 -19 5 -23 2 -3 -3
-6 -2 -6 3 0 5 -11 11 -25 12 -36 3 -31 -11 14 -36 40 -23 147 -37 157 -21 3
5 10 7 15 4 5 -4 9 -1 9 6 0 7 3 10 6 6 10 -10 83 74 77 89 -6 16 -19 18 -28
4 -9 -15 -42 -12 -48 4 -7 17 16 39 28 28 5 -4 5 1 2 11 -4 10 -7 21 -7 23 0
7 -24 4 -37 -4z"/>
<path d="M4100 1833 l-45 -43 -1 -114 c0 -130 -8 -150 -53 -135 -15 5 -35 23
-45 40 l-18 31 -27 -25 c-30 -29 -79 -54 -101 -52 -8 1 -20 -2 -25 -6 -6 -5
-22 -2 -35 5 -33 16 -29 49 11 99 29 35 34 66 7 39 -7 -7 -20 -12 -30 -12 -10
0 -18 -5 -18 -12 0 -6 -3 -9 -6 -5 -3 3 -23 -3 -42 -14 -20 -10 -42 -19 -49
-19 -7 0 -13 -5 -13 -10 0 -6 -3 -9 -7 -8 -12 3 -107 -35 -114 -45 -4 -5 -11
-7 -17 -3 -6 3 -12 1 -14 -4 -2 -6 -27 -13 -56 -15 -61 -4 -62 -3 -32 99 11
38 18 71 17 73 -2 1 -33 -17 -70 -41 -37 -24 -67 -41 -67 -38 0 4 -4 2 -8 -4
-8 -14 -104 -70 -144 -85 -16 -6 -28 -16 -28 -22 0 -6 -3 -8 -6 -4 -3 3 -26
-6 -50 -19 -24 -14 -44 -22 -44 -18 0 3 -11 -1 -23 -9 -48 -31 -227 -59 -227
-35 0 5 -5 6 -10 3 -6 -4 -17 -1 -25 5 -8 7 -15 10 -15 6 0 -5 -16 7 -59 44
-29 25 -59 86 -81 162 -35 122 -52 148 -100 151 -16 1 -30 7 -30 12 0 7 -3 7
-8 0 -4 -5 -18 -11 -32 -12 -51 -4 -64 -11 -116 -64 -30 -29 -54 -57 -54 -61
0 -3 -6 -13 -13 -20 -37 -38 -101 -207 -141 -369 -25 -99 -36 -339 -17 -339 6
0 11 9 11 20 0 26 0 24 11 62 5 18 12 47 15 63 9 52 45 187 66 250 21 63 96
208 110 213 4 2 6 8 2 13 -3 5 0 9 5 9 6 0 11 5 11 11 0 6 16 27 35 46 57 57
114 42 115 -31 3 -135 6 -154 43 -203 21 -29 55 -60 84 -75 41 -22 58 -25 123
-22 64 2 115 8 115 14 0 1 7 3 15 5 9 1 45 14 81 29 36 14 71 26 77 26 7 0 12
5 12 10 0 6 4 10 10 10 16 0 144 61 151 72 3 5 9 9 13 8 7 -2 76 30 86 40 3 3
11 6 17 7 10 2 10 -3 1 -22 -9 -19 -8 -29 5 -49 19 -28 63 -52 92 -50 33 2 85
16 85 23 0 3 15 13 33 20 17 8 57 31 87 50 30 20 58 34 63 33 4 -1 7 3 7 9 0
5 5 7 10 4 6 -3 10 -1 10 4 0 6 5 11 11 11 6 0 9 -14 6 -34 -10 -73 46 -117
139 -110 42 3 111 41 127 70 11 19 23 18 53 -8 14 -13 29 -23 32 -23 4 0 12
-3 17 -7 12 -8 35 9 57 40 16 24 16 24 23 3 3 -12 10 -21 15 -21 5 0 16 -8 26
-17 21 -22 49 -24 99 -7 52 18 60 17 92 -3 47 -31 118 -26 158 11 28 26 71
114 80 166 4 19 8 78 10 131 2 77 0 96 -11 96 -8 0 -14 -4 -14 -8 0 -6 -28
-17 -41 -15 -4 1 -16 -7 -27 -17 -17 -16 -19 -24 -11 -45 15 -38 19 -149 8
-180 -12 -32 -48 -64 -68 -60 -10 2 -18 18 -21 43 -4 28 -7 35 -12 23 -10 -23
-66 -51 -109 -53 -19 -1 -40 -4 -45 -8 -6 -3 -20 22 -32 61 -18 53 -22 91 -22
179 0 61 -3 113 -7 115 -5 2 -28 -16 -53 -39z"/>
<path d="M11600 1328 c0 -21 -19 -64 -20 -45 0 4 -9 3 -20 -3 -23 -12 -48 -58
-45 -81 2 -8 6 -42 10 -75 3 -32 10 -76 14 -96 5 -20 6 -39 3 -43 -3 -3 -1 -5
5 -5 6 0 11 17 11 38 1 51 11 153 18 174 6 20 36 32 84 32 34 1 35 2 38 43 3
40 1 43 -37 63 -51 26 -61 25 -61 -2z"/>
<path d="M4068 1282 c-16 -9 -28 -20 -28 -24 0 -5 -7 -8 -15 -8 -20 0 -20 -1
15 -60 17 -28 30 -55 30 -60 0 -6 4 -10 8 -10 10 0 82 81 82 92 0 4 -9 18 -20
30 -10 13 -25 31 -32 40 -12 16 -15 16 -40 0z"/>
<path d="M4250 1273 c0 -7 -5 -13 -10 -13 -6 0 -22 -11 -36 -24 l-26 -23 32
-57 c31 -54 50 -77 50 -58 0 4 8 17 18 28 10 10 25 30 34 42 15 22 15 25 0 44
-48 58 -61 72 -62 61z"/>
<path d="M2538 1161 c-41 -31 -42 -23 14 -122 l21 -38 31 42 c17 23 34 45 39
48 5 4 6 13 1 21 -11 19 -62 78 -66 77 -2 0 -20 -13 -40 -28z"/>
<path d="M8130 1145 c-6 -19 -20 -37 -31 -40 -38 -12 -52 -50 -45 -118 10 -89
17 -137 26 -177 7 -32 8 -30 10 25 6 193 17 217 102 218 32 1 38 4 39 24 1 13
2 30 3 40 1 14 -64 61 -86 63 -3 0 -12 -16 -18 -35z"/>
<path d="M2719 1149 c-13 -11 -31 -25 -39 -29 -13 -7 -11 -15 8 -52 52 -98 44
-94 86 -44 20 24 36 50 36 58 0 7 -16 30 -34 50 l-34 37 -23 -20z"/>
<path d="M9816 1102 c-4 -11 -14 -23 -22 -26 -8 -3 -12 -1 -9 4 3 5 0 7 -7 5
-13 -5 -48 -75 -48 -95 0 -6 6 -13 14 -16 11 -4 7 -18 -17 -65 -26 -50 -29
-62 -19 -84 17 -38 53 -51 102 -36 48 14 51 25 10 40 -33 11 -35 18 -20 72 7
25 23 45 50 64 22 15 40 30 40 34 -1 21 -30 86 -47 103 l-21 20 -6 -20z"/>
<path d="M3066 1033 c-1 -1 -11 -4 -22 -6 -80 -16 -115 -70 -110 -174 2 -50 7
-68 26 -88 12 -13 27 -22 31 -19 5 3 17 0 27 -5 11 -6 36 -11 56 -13 20 -1 35
-5 33 -8 -1 -3 -11 -23 -22 -45 -38 -75 -120 -162 -187 -196 -24 -12 -46 -26
-49 -31 -3 -5 -8 -8 -10 -7 -2 1 -20 -3 -39 -11 -51 -19 -49 -18 -130 -39 -41
-11 -88 -22 -105 -25 -16 -2 -30 -5 -30 -6 0 -1 -13 -4 -30 -6 -16 -2 -46 -6
-65 -9 -19 -2 -48 -7 -65 -9 -16 -2 -56 -7 -88 -10 -32 -3 -62 -8 -67 -11 -6
-4 -10 0 -10 7 0 8 -3 9 -8 3 -7 -10 -42 -14 -140 -17 -72 -2 -43 -16 45 -21
38 -2 76 -8 83 -12 9 -6 11 -4 5 5 -6 10 -4 11 6 4 8 -5 34 -10 59 -11 25 0
45 -2 45 -3 0 -1 23 -3 50 -4 28 -1 55 -4 60 -7 11 -5 207 -3 240 4 57 10 205
75 205 88 0 5 7 9 15 9 8 0 15 5 15 10 0 6 5 10 10 10 13 0 38 22 148 130 58
57 96 105 115 143 36 75 64 198 62 271 -2 49 -7 62 -26 77 -13 10 -32 19 -41
19 -10 0 -18 3 -18 8 0 6 -67 11 -74 5z"/>
<path d="M7110 1000 c0 -5 -6 -10 -12 -10 -7 -1 -24 -10 -37 -21 -22 -18 -23
-22 -10 -47 8 -15 22 -36 31 -46 10 -11 20 -28 23 -38 6 -15 10 -14 36 13 16
16 36 41 45 54 16 24 15 26 -22 65 -38 40 -54 49 -54 30z"/>
<path d="M7291 989 c-13 -11 -31 -24 -39 -28 -13 -7 -12 -13 4 -42 11 -18 25
-40 31 -47 7 -7 17 -21 22 -30 9 -15 16 -10 55 32 l45 50 -42 43 c-23 24 -44
43 -47 43 -3 -1 -16 -10 -29 -21z"/>
<path d="M10738 986 c-14 -8 -38 -18 -53 -23 -26 -8 -28 -12 -31 -83 -5 -105
-3 -109 49 -100 23 5 43 9 45 9 1 1 7 1 12 1 13 0 60 46 89 88 18 26 20 32 7
32 -9 0 -16 -4 -16 -10 0 -5 -7 -10 -15 -10 -8 0 -15 -4 -15 -9 0 -14 -82 -43
-92 -33 -5 5 -1 19 10 33 23 31 52 108 43 113 -4 3 -19 -1 -33 -8z"/>
<path d="M3988 943 c-33 -22 -52 -63 -30 -63 4 0 18 -20 31 -45 13 -25 27 -45
30 -45 3 1 22 22 42 48 l37 48 -37 41 -36 42 -37 -26z"/>
<path d="M3626 891 l-50 -28 -21 -94 c-37 -164 -105 -262 -256 -364 -41 -27
-77 -54 -81 -60 -4 -5 -8 -6 -8 -1 0 5 -8 2 -17 -7 -20 -17 -85 -44 -123 -51
-14 -3 -25 -5 -25 -6 0 -1 -7 -3 -15 -5 -8 -2 -49 -13 -90 -25 -41 -12 -82
-23 -90 -24 -36 -7 -63 -23 -52 -30 7 -4 12 -5 12 -3 0 3 17 1 38 -4 35 -9
122 -21 150 -22 6 0 12 -3 12 -6 0 -8 136 -5 175 4 51 11 127 58 185 115 73
71 104 114 140 195 16 36 31 65 32 65 2 0 3 -15 3 -32 -2 -84 33 -195 74 -233
12 -11 29 -27 39 -36 42 -39 204 -84 247 -69 11 4 23 6 27 3 9 -5 118 46 136
64 7 7 19 13 25 13 7 0 25 14 41 30 16 17 33 30 37 30 4 0 24 33 44 73 37 74
50 151 34 194 -8 21 -45 37 -54 23 -3 -5 -14 -7 -25 -5 -11 2 -20 0 -20 -6 0
-5 -11 -7 -24 -5 -34 6 -36 0 -22 -47 7 -23 11 -64 9 -92 -5 -88 -80 -136
-215 -135 -83 0 -98 2 -98 12 0 4 -3 7 -7 6 -30 -6 -92 52 -124 115 -20 38
-21 51 -15 152 6 114 11 153 27 244 16 94 18 92 -55 52z"/>
<path d="M11704 252 c-28 -18 -39 -32 -35 -42 5 -12 49 -82 68 -109 3 -4 20
12 75 76 17 18 16 21 -20 61 -21 23 -40 42 -43 42 -2 0 -22 -12 -45 -28z"/>
<path d="M8675 189 c-5 -6 -23 -21 -39 -33 -26 -21 -28 -24 -15 -47 8 -13 17
-26 20 -29 3 -3 14 -20 25 -38 l19 -33 43 47 c23 26 42 52 42 57 0 8 -75 88
-82 87 -2 -1 -7 -6 -13 -11z"/>
<path d="M4855 165 c-11 -14 -26 -25 -32 -25 -7 0 -13 -4 -13 -10 0 -8 53
-102 68 -120 8 -11 80 85 74 100 -7 18 -63 80 -71 80 -3 -1 -15 -12 -26 -25z"/>
</g>
</svg>
