<svg width="98" height="109" viewBox="0 0 98 109" fill="none" xmlns="http://www.w3.org/2000/svg">
<path d="M2.222 81.1634H3.912V90.2634H2.222V81.1634ZM14.4594 81.1634V90.2634H13.0684L8.05037 84.1014V90.2634H6.37337V81.1634H7.76437L12.7824 87.3254V81.1634H14.4594ZM18.5878 82.5804V85.3494H22.9818V86.7794H18.5878V90.2634H16.8978V81.1634H23.5408V82.5804H18.5878ZM29.3246 90.3934C28.3972 90.3934 27.5609 90.1941 26.8156 89.7954C26.0702 89.3881 25.4852 88.8291 25.0606 88.1184C24.6359 87.3991 24.4236 86.5974 24.4236 85.7134C24.4236 84.8294 24.6359 84.0321 25.0606 83.3214C25.4852 82.6021 26.0702 82.0431 26.8156 81.6444C27.5609 81.2371 28.3972 81.0334 29.3246 81.0334C30.2519 81.0334 31.0882 81.2371 31.8336 81.6444C32.5789 82.0431 33.1639 82.5978 33.5886 83.3084C34.0132 84.0191 34.2256 84.8208 34.2256 85.7134C34.2256 86.6061 34.0132 87.4078 33.5886 88.1184C33.1639 88.8291 32.5789 89.3881 31.8336 89.7954C31.0882 90.1941 30.2519 90.3934 29.3246 90.3934ZM29.3246 88.9114C29.9312 88.9114 30.4772 88.7771 30.9626 88.5084C31.4479 88.2311 31.8292 87.8498 32.1066 87.3644C32.3839 86.8704 32.5226 86.3201 32.5226 85.7134C32.5226 85.1068 32.3839 84.5608 32.1066 84.0754C31.8292 83.5814 31.4479 83.2001 30.9626 82.9314C30.4772 82.6541 29.9312 82.5154 29.3246 82.5154C28.7179 82.5154 28.1719 82.6541 27.6866 82.9314C27.2012 83.2001 26.8199 83.5814 26.5426 84.0754C26.2652 84.5608 26.1266 85.1068 26.1266 85.7134C26.1266 86.3201 26.2652 86.8704 26.5426 87.3644C26.8199 87.8498 27.2012 88.2311 27.6866 88.5084C28.1719 88.7771 28.7179 88.9114 29.3246 88.9114ZM41.9709 90.2634L40.1119 87.5984C40.0339 87.6071 39.9169 87.6114 39.7609 87.6114H37.7069V90.2634H36.0169V81.1634H39.7609C40.5496 81.1634 41.2343 81.2934 41.8149 81.5534C42.4043 81.8134 42.8549 82.1861 43.1669 82.6714C43.4789 83.1568 43.6349 83.7331 43.6349 84.4004C43.6349 85.0851 43.4659 85.6744 43.1279 86.1684C42.7986 86.6624 42.3219 87.0308 41.6979 87.2734L43.7909 90.2634H41.9709ZM41.9319 84.4004C41.9319 83.8198 41.7413 83.3734 41.3599 83.0614C40.9786 82.7494 40.4196 82.5934 39.6829 82.5934H37.7069V86.2204H39.6829C40.4196 86.2204 40.9786 86.0644 41.3599 85.7524C41.7413 85.4318 41.9319 84.9811 41.9319 84.4004ZM53.8847 90.2634L53.8717 84.2314L50.8817 89.2234H50.1277L47.1377 84.3094V90.2634H45.5257V81.1634H46.9167L50.5307 87.1954L54.0797 81.1634H55.4707L55.4837 90.2634H53.8847ZM63.8437 88.1574H59.2937L58.3967 90.2634H56.6547L60.7497 81.1634H62.4137L66.5217 90.2634H64.7537L63.8437 88.1574ZM63.2847 86.8314L61.5687 82.8534L59.8657 86.8314H63.2847ZM69.068 82.5934H66.052V81.1634H73.774V82.5934H70.758V90.2634H69.068V82.5934ZM75.0423 81.1634H76.7323V90.2634H75.0423V81.1634ZM83.4057 90.3934C82.487 90.3934 81.655 90.1941 80.9097 89.7954C80.173 89.3881 79.5923 88.8291 79.1677 88.1184C78.7517 87.4078 78.5437 86.6061 78.5437 85.7134C78.5437 84.8208 78.756 84.0191 79.1807 83.3084C79.6053 82.5978 80.186 82.0431 80.9227 81.6444C81.668 81.2371 82.5 81.0334 83.4187 81.0334C84.164 81.0334 84.8443 81.1634 85.4597 81.4234C86.075 81.6834 86.595 82.0604 87.0197 82.5544L85.9277 83.5814C85.269 82.8708 84.4587 82.5154 83.4967 82.5154C82.8727 82.5154 82.3137 82.6541 81.8197 82.9314C81.3257 83.2001 80.94 83.5771 80.6627 84.0624C80.3853 84.5478 80.2467 85.0981 80.2467 85.7134C80.2467 86.3288 80.3853 86.8791 80.6627 87.3644C80.94 87.8498 81.3257 88.2311 81.8197 88.5084C82.3137 88.7771 82.8727 88.9114 83.4967 88.9114C84.4587 88.9114 85.269 88.5518 85.9277 87.8324L87.0197 88.8724C86.595 89.3664 86.0707 89.7434 85.4467 90.0034C84.8313 90.2634 84.151 90.3934 83.4057 90.3934ZM91.4092 90.3934C90.7072 90.3934 90.0269 90.2938 89.3682 90.0944C88.7182 89.8951 88.2025 89.6308 87.8212 89.3014L88.4062 87.9884C88.7789 88.2831 89.2339 88.5258 89.7712 88.7164C90.3172 88.8984 90.8632 88.9894 91.4092 88.9894C92.0852 88.9894 92.5879 88.8811 92.9172 88.6644C93.2552 88.4478 93.4242 88.1618 93.4242 87.8064C93.4242 87.5464 93.3289 87.3341 93.1382 87.1694C92.9562 86.9961 92.7222 86.8618 92.4362 86.7664C92.1502 86.6711 91.7602 86.5628 91.2662 86.4414C90.5729 86.2768 90.0095 86.1121 89.5762 85.9474C89.1515 85.7828 88.7832 85.5271 88.4712 85.1804C88.1679 84.8251 88.0162 84.3484 88.0162 83.7504C88.0162 83.2478 88.1505 82.7928 88.4192 82.3854C88.6965 81.9694 89.1082 81.6401 89.6542 81.3974C90.2089 81.1548 90.8849 81.0334 91.6822 81.0334C92.2369 81.0334 92.7829 81.1028 93.3202 81.2414C93.8575 81.3801 94.3212 81.5794 94.7112 81.8394L94.1782 83.1524C93.7795 82.9184 93.3635 82.7408 92.9302 82.6194C92.4969 82.4981 92.0765 82.4374 91.6692 82.4374C91.0019 82.4374 90.5035 82.5501 90.1742 82.7754C89.8535 83.0008 89.6932 83.2998 89.6932 83.6724C89.6932 83.9324 89.7842 84.1448 89.9662 84.3094C90.1569 84.4741 90.3952 84.6041 90.6812 84.6994C90.9672 84.7948 91.3572 84.9031 91.8512 85.0244C92.5272 85.1804 93.0819 85.3451 93.5152 85.5184C93.9485 85.6831 94.3169 85.9388 94.6202 86.2854C94.9322 86.6321 95.0882 87.1001 95.0882 87.6894C95.0882 88.1921 94.9495 88.6471 94.6722 89.0544C94.4035 89.4618 93.9919 89.7868 93.4372 90.0294C92.8825 90.2721 92.2065 90.3934 91.4092 90.3934Z" fill="#093697"/>
<path d="M37.047 104.583V106H30.222V96.9H36.865V98.317H31.912V100.683H36.306V102.074H31.912V104.583H37.047ZM44.5624 106L42.0924 102.542L39.6484 106H37.7244L41.1044 101.359L37.9064 96.9H39.8174L42.1444 100.137L44.4454 96.9H46.2784L43.0934 101.294L46.5124 106H44.5624ZM51.2824 96.9C52.0711 96.9 52.7557 97.03 53.3364 97.29C53.9257 97.55 54.3764 97.9227 54.6884 98.408C55.0004 98.8933 55.1564 99.4697 55.1564 100.137C55.1564 100.796 55.0004 101.372 54.6884 101.866C54.3764 102.351 53.9257 102.724 53.3364 102.984C52.7557 103.244 52.0711 103.374 51.2824 103.374H49.2284V106H47.5384V96.9H51.2824ZM51.2044 101.944C51.9411 101.944 52.5001 101.788 52.8814 101.476C53.2627 101.164 53.4534 100.718 53.4534 100.137C53.4534 99.5563 53.2627 99.11 52.8814 98.798C52.5001 98.486 51.9411 98.33 51.2044 98.33H49.2284V101.944H51.2044ZM61.222 106.13C60.2947 106.13 59.4584 105.931 58.713 105.532C57.9677 105.125 57.3827 104.566 56.958 103.855C56.5334 103.136 56.321 102.334 56.321 101.45C56.321 100.566 56.5334 99.7687 56.958 99.058C57.3827 98.3387 57.9677 97.7797 58.713 97.381C59.4584 96.9737 60.2947 96.77 61.222 96.77C62.1494 96.77 62.9857 96.9737 63.731 97.381C64.4764 97.7797 65.0614 98.3343 65.486 99.045C65.9107 99.7557 66.123 100.557 66.123 101.45C66.123 102.343 65.9107 103.144 65.486 103.855C65.0614 104.566 64.4764 105.125 63.731 105.532C62.9857 105.931 62.1494 106.13 61.222 106.13ZM61.222 104.648C61.8287 104.648 62.3747 104.514 62.86 104.245C63.3454 103.968 63.7267 103.586 64.004 103.101C64.2814 102.607 64.42 102.057 64.42 101.45C64.42 100.843 64.2814 100.297 64.004 99.812C63.7267 99.318 63.3454 98.9367 62.86 98.668C62.3747 98.3907 61.8287 98.252 61.222 98.252C60.6154 98.252 60.0694 98.3907 59.584 98.668C59.0987 98.9367 58.7174 99.318 58.44 99.812C58.1627 100.297 58.024 100.843 58.024 101.45C58.024 102.057 58.1627 102.607 58.44 103.101C58.7174 103.586 59.0987 103.968 59.584 104.245C60.0694 104.514 60.6154 104.648 61.222 104.648Z" fill="#093697"/>
<path d="M46.1032 1.60789C42.6712 4.42926 38.4497 8.88884 35.3518 12.9237C30.3406 19.4766 26.4835 28.062 25.6635 34.5238L25.4509 36.1317H24.2664C23.1427 36.1317 23.082 36.1621 23.082 37.1025C23.1123 38.6194 24.145 40.6823 24.9042 40.6823C25.5116 40.6823 25.5116 40.7733 25.5116 56.4577V72.2331H28.8525H32.1933V56.4577C32.1933 41.4104 32.2236 40.6823 32.7399 40.6823C33.4688 40.6823 34.3192 38.8924 34.3192 37.3452C34.3192 36.1621 34.2889 36.1317 33.2259 36.1317H32.1325L32.3451 34.8272C33.0133 30.7924 35.4126 25.3317 38.3889 20.9631C40.5149 17.8687 45.0706 12.59 46.8017 11.2248L47.9862 10.2844L49.1706 11.2248C50.9018 12.6203 55.4574 17.899 57.6138 21.0238C60.6205 25.3923 62.9591 30.762 63.6272 34.8272L63.8398 36.1317H62.7465C61.6835 36.1317 61.6531 36.1621 61.6531 37.3452C61.6531 38.8924 62.5035 40.6823 63.2324 40.6823C63.7487 40.6823 63.7791 41.4104 63.7791 56.4577V72.2331H67.1199H70.4607V56.4577C70.4607 40.7733 70.4607 40.6823 71.0681 40.6823C71.8274 40.6823 72.86 38.6194 72.8904 37.1025C72.8904 36.1621 72.8296 36.1317 71.7059 36.1317H70.5214L70.3088 34.5238C68.9421 23.8755 61.0761 11.1641 49.8995 1.60789L48.0469 1.70805e-05L46.1032 1.60789Z" fill="#093697"/>
<path d="M14.3047 12.7718C8.07868 19.0516 3.5534 26.7877 2.24745 33.4922C1.73115 36.0709 1.70077 36.1315 0.850387 36.1315C0.030371 36.1315 0 36.1619 0 37.8304C0 39.772 0.394823 40.6821 1.21484 40.6821C1.82226 40.6821 1.82226 40.9855 1.82226 56.4575V72.2329H5.01121H8.20016V56.4879V40.7125L8.86832 40.6215C9.71871 40.5001 10.5995 38.8316 10.6298 37.254C10.6298 36.1619 10.5995 36.1315 9.56686 36.1315C8.35202 36.1315 8.35202 36.1012 8.98981 33.5832C9.6276 31.0652 11.4195 27.3034 13.2721 24.573C14.9729 22.0854 16.8863 19.8101 17.0685 20.0528C17.1292 20.1438 17.7366 20.8719 18.4048 21.7213C20.3182 24.0876 22.1708 26.909 23.0516 28.9113L23.8716 30.7012L24.3879 28.8506C24.6916 27.8191 25.3901 25.8472 25.9368 24.4213L26.9694 21.873L25.2079 19.3854C23.3553 16.7764 17.4937 10.3448 16.9774 10.3448C16.8255 10.3448 15.6107 11.437 14.3047 12.7718Z" fill="#093697"/>
<path d="M76.96 12.2259C73.7711 15.5327 71.9792 17.6563 70.4303 19.9619L68.9421 22.1766L69.5191 23.299C69.8228 23.9361 70.5517 25.8474 71.0984 27.5159L72.1007 30.6103L73.2851 28.2744C74.5 25.8777 77.3245 21.7822 78.5089 20.6597L79.1771 20.0226L80.3312 21.3271C83.429 24.9373 85.8891 29.5182 87.1343 33.9474L87.7417 36.1317H86.5269C85.3424 36.1317 85.3424 36.1317 85.3424 37.3149C85.3424 38.6497 86.375 40.6823 87.0432 40.6823C87.4076 40.6823 87.4684 43.2003 87.5291 56.3667L87.6202 72.0814L90.9003 72.1724L94.15 72.2634V56.4577C94.15 40.834 94.15 40.6823 94.7574 40.6823C95.1522 40.6823 95.5471 40.3183 95.8811 39.6205C96.1545 39.0441 96.5797 38.5587 96.7923 38.5587C97.0656 38.5587 97.1871 38.134 97.1871 37.3452V36.1317H95.6685C94.2107 36.1317 94.15 36.1014 94.15 35.2823C94.15 33.9171 92.9655 29.8216 91.9025 27.3339C90.5966 24.4215 88.5314 20.9024 86.4358 18.1114C84.3705 15.4113 79.6327 10.345 79.1467 10.345C78.9645 10.345 77.9623 11.1945 76.96 12.2259Z" fill="#093697"/>
</svg>
