<svg width="169" height="240" viewBox="0 0 169 240" fill="none" xmlns="http://www.w3.org/2000/svg">
<path d="M159 0H10C4.47715 0 0 4.47715 0 10V230C0 235.523 4.47715 240 10 240H159C164.523 240 169 235.523 169 230V10C169 4.47715 164.523 0 159 0Z" fill="white"/>
<path d="M38.222 147.163H39.912V156.263H38.222V147.163ZM50.4594 147.163V156.263H49.0684L44.0504 150.101V156.263H42.3734V147.163H43.7644L48.7824 153.325V147.163H50.4594ZM54.5878 148.58V151.349H58.9818V152.779H54.5878V156.263H52.8978V147.163H59.5408V148.58H54.5878ZM65.3246 156.393C64.3972 156.393 63.5609 156.194 62.8156 155.795C62.0702 155.388 61.4852 154.829 61.0606 154.118C60.6359 153.399 60.4236 152.597 60.4236 151.713C60.4236 150.829 60.6359 150.032 61.0606 149.321C61.4852 148.602 62.0702 148.043 62.8156 147.644C63.5609 147.237 64.3972 147.033 65.3246 147.033C66.2519 147.033 67.0882 147.237 67.8336 147.644C68.5789 148.043 69.1639 148.598 69.5886 149.308C70.0132 150.019 70.2256 150.821 70.2256 151.713C70.2256 152.606 70.0132 153.408 69.5886 154.118C69.1639 154.829 68.5789 155.388 67.8336 155.795C67.0882 156.194 66.2519 156.393 65.3246 156.393ZM65.3246 154.911C65.9312 154.911 66.4772 154.777 66.9626 154.508C67.4479 154.231 67.8292 153.85 68.1066 153.364C68.3839 152.87 68.5226 152.32 68.5226 151.713C68.5226 151.107 68.3839 150.561 68.1066 150.075C67.8292 149.581 67.4479 149.2 66.9626 148.931C66.4772 148.654 65.9312 148.515 65.3246 148.515C64.7179 148.515 64.1719 148.654 63.6866 148.931C63.2012 149.2 62.8199 149.581 62.5426 150.075C62.2652 150.561 62.1266 151.107 62.1266 151.713C62.1266 152.32 62.2652 152.87 62.5426 153.364C62.8199 153.85 63.2012 154.231 63.6866 154.508C64.1719 154.777 64.7179 154.911 65.3246 154.911ZM77.9709 156.263L76.1119 153.598C76.0339 153.607 75.9169 153.611 75.7609 153.611H73.7069V156.263H72.0169V147.163H75.7609C76.5496 147.163 77.2343 147.293 77.8149 147.553C78.4043 147.813 78.8549 148.186 79.1669 148.671C79.4789 149.157 79.6349 149.733 79.6349 150.4C79.6349 151.085 79.4659 151.674 79.1279 152.168C78.7986 152.662 78.3219 153.031 77.6979 153.273L79.7909 156.263H77.9709ZM77.9319 150.4C77.9319 149.82 77.7413 149.373 77.3599 149.061C76.9786 148.749 76.4196 148.593 75.6829 148.593H73.7069V152.22H75.6829C76.4196 152.22 76.9786 152.064 77.3599 151.752C77.7413 151.432 77.9319 150.981 77.9319 150.4ZM89.8847 156.263L89.8717 150.231L86.8817 155.223H86.1277L83.1377 150.309V156.263H81.5257V147.163H82.9167L86.5307 153.195L90.0797 147.163H91.4707L91.4837 156.263H89.8847ZM99.8437 154.157H95.2937L94.3967 156.263H92.6547L96.7497 147.163H98.4137L102.522 156.263H100.754L99.8437 154.157ZM99.2847 152.831L97.5687 148.853L95.8657 152.831H99.2847ZM105.068 148.593H102.052V147.163H109.774V148.593H106.758V156.263H105.068V148.593ZM111.042 147.163H112.732V156.263H111.042V147.163ZM119.406 156.393C118.487 156.393 117.655 156.194 116.91 155.795C116.173 155.388 115.592 154.829 115.168 154.118C114.752 153.408 114.544 152.606 114.544 151.713C114.544 150.821 114.756 150.019 115.181 149.308C115.605 148.598 116.186 148.043 116.923 147.644C117.668 147.237 118.5 147.033 119.419 147.033C120.164 147.033 120.844 147.163 121.46 147.423C122.075 147.683 122.595 148.06 123.02 148.554L121.928 149.581C121.269 148.871 120.459 148.515 119.497 148.515C118.873 148.515 118.314 148.654 117.82 148.931C117.326 149.2 116.94 149.577 116.663 150.062C116.385 150.548 116.247 151.098 116.247 151.713C116.247 152.329 116.385 152.879 116.663 153.364C116.94 153.85 117.326 154.231 117.82 154.508C118.314 154.777 118.873 154.911 119.497 154.911C120.459 154.911 121.269 154.552 121.928 153.832L123.02 154.872C122.595 155.366 122.071 155.743 121.447 156.003C120.831 156.263 120.151 156.393 119.406 156.393ZM127.409 156.393C126.707 156.393 126.027 156.294 125.368 156.094C124.718 155.895 124.203 155.631 123.821 155.301L124.406 153.988C124.779 154.283 125.234 154.526 125.771 154.716C126.317 154.898 126.863 154.989 127.409 154.989C128.085 154.989 128.588 154.881 128.917 154.664C129.255 154.448 129.424 154.162 129.424 153.806C129.424 153.546 129.329 153.334 129.138 153.169C128.956 152.996 128.722 152.862 128.436 152.766C128.15 152.671 127.76 152.563 127.266 152.441C126.573 152.277 126.01 152.112 125.576 151.947C125.152 151.783 124.783 151.527 124.471 151.18C124.168 150.825 124.016 150.348 124.016 149.75C124.016 149.248 124.151 148.793 124.419 148.385C124.697 147.969 125.108 147.64 125.654 147.397C126.209 147.155 126.885 147.033 127.682 147.033C128.237 147.033 128.783 147.103 129.32 147.241C129.858 147.38 130.321 147.579 130.711 147.839L130.178 149.152C129.78 148.918 129.364 148.741 128.93 148.619C128.497 148.498 128.077 148.437 127.669 148.437C127.002 148.437 126.504 148.55 126.174 148.775C125.854 149.001 125.693 149.3 125.693 149.672C125.693 149.932 125.784 150.145 125.966 150.309C126.157 150.474 126.395 150.604 126.681 150.699C126.967 150.795 127.357 150.903 127.851 151.024C128.527 151.18 129.082 151.345 129.515 151.518C129.949 151.683 130.317 151.939 130.62 152.285C130.932 152.632 131.088 153.1 131.088 153.689C131.088 154.192 130.95 154.647 130.672 155.054C130.404 155.462 129.992 155.787 129.437 156.029C128.883 156.272 128.207 156.393 127.409 156.393Z" fill="#093697"/>
<path d="M73.047 170.583V172H66.222V162.9H72.865V164.317H67.912V166.683H72.306V168.074H67.912V170.583H73.047ZM80.5624 172L78.0924 168.542L75.6484 172H73.7244L77.1044 167.359L73.9064 162.9H75.8174L78.1444 166.137L80.4454 162.9H82.2784L79.0934 167.294L82.5124 172H80.5624ZM87.2824 162.9C88.0711 162.9 88.7557 163.03 89.3364 163.29C89.9257 163.55 90.3764 163.923 90.6884 164.408C91.0004 164.893 91.1564 165.47 91.1564 166.137C91.1564 166.796 91.0004 167.372 90.6884 167.866C90.3764 168.351 89.9257 168.724 89.3364 168.984C88.7557 169.244 88.0711 169.374 87.2824 169.374H85.2284V172H83.5384V162.9H87.2824ZM87.2044 167.944C87.9411 167.944 88.5001 167.788 88.8814 167.476C89.2627 167.164 89.4534 166.718 89.4534 166.137C89.4534 165.556 89.2627 165.11 88.8814 164.798C88.5001 164.486 87.9411 164.33 87.2044 164.33H85.2284V167.944H87.2044ZM97.222 172.13C96.2947 172.13 95.4584 171.931 94.713 171.532C93.9677 171.125 93.3827 170.566 92.958 169.855C92.5334 169.136 92.321 168.334 92.321 167.45C92.321 166.566 92.5334 165.769 92.958 165.058C93.3827 164.339 93.9677 163.78 94.713 163.381C95.4584 162.974 96.2947 162.77 97.222 162.77C98.1494 162.77 98.9857 162.974 99.731 163.381C100.476 163.78 101.061 164.334 101.486 165.045C101.911 165.756 102.123 166.557 102.123 167.45C102.123 168.343 101.911 169.144 101.486 169.855C101.061 170.566 100.476 171.125 99.731 171.532C98.9857 171.931 98.1494 172.13 97.222 172.13ZM97.222 170.648C97.8287 170.648 98.3747 170.514 98.86 170.245C99.3454 169.968 99.7267 169.586 100.004 169.101C100.281 168.607 100.42 168.057 100.42 167.45C100.42 166.843 100.281 166.297 100.004 165.812C99.7267 165.318 99.3454 164.937 98.86 164.668C98.3747 164.391 97.8287 164.252 97.222 164.252C96.6154 164.252 96.0694 164.391 95.584 164.668C95.0987 164.937 94.7174 165.318 94.44 165.812C94.1627 166.297 94.024 166.843 94.024 167.45C94.024 168.057 94.1627 168.607 94.44 169.101C94.7174 169.586 95.0987 169.968 95.584 170.245C96.0694 170.514 96.6154 170.648 97.222 170.648Z" fill="#093697"/>
<path d="M82.1032 67.6079C78.6712 70.4293 74.4497 74.8888 71.3518 78.9237C66.3406 85.4766 62.4835 94.062 61.6635 100.524L61.4509 102.132H60.2664C59.1427 102.132 59.082 102.162 59.082 103.103C59.1123 104.619 60.145 106.682 60.9042 106.682C61.5116 106.682 61.5116 106.773 61.5116 122.458V138.233H64.8525H68.1933V122.458C68.1933 107.41 68.2236 106.682 68.7399 106.682C69.4688 106.682 70.3192 104.892 70.3192 103.345C70.3192 102.162 70.2889 102.132 69.2259 102.132H68.1325L68.3451 100.827C69.0133 96.7924 71.4126 91.3317 74.3889 86.9631C76.5149 83.8687 81.0706 78.59 82.8017 77.2248L83.9862 76.2844L85.1706 77.2248C86.9018 78.6203 91.4574 83.899 93.6138 87.0238C96.6205 91.3923 98.9591 96.762 99.6272 100.827L99.8398 102.132H98.7465C97.6835 102.132 97.6531 102.162 97.6531 103.345C97.6531 104.892 98.5035 106.682 99.2324 106.682C99.7487 106.682 99.7791 107.41 99.7791 122.458V138.233H103.12H106.461V122.458C106.461 106.773 106.461 106.682 107.068 106.682C107.827 106.682 108.86 104.619 108.89 103.103C108.89 102.162 108.83 102.132 107.706 102.132H106.521L106.309 100.524C104.942 89.8755 97.0761 77.1641 85.8995 67.6079L84.0469 66L82.1032 67.6079Z" fill="#093697"/>
<path d="M50.3047 78.7718C44.0787 85.0516 39.5534 92.7877 38.2475 99.4922C37.7311 102.071 37.7008 102.132 36.8504 102.132C36.0304 102.132 36 102.162 36 103.83C36 105.772 36.3948 106.682 37.2148 106.682C37.8223 106.682 37.8223 106.986 37.8223 122.458V138.233H41.0112H44.2002V122.488V106.712L44.8683 106.621C45.7187 106.5 46.5995 104.832 46.6298 103.254C46.6298 102.162 46.5995 102.132 45.5669 102.132C44.352 102.132 44.352 102.101 44.9898 99.5832C45.6276 97.0652 47.4195 93.3034 49.2721 90.573C50.9729 88.0854 52.8863 85.8101 53.0685 86.0528C53.1292 86.1438 53.7366 86.8719 54.4048 87.7213C56.3182 90.0876 58.1708 92.909 59.0516 94.9113L59.8716 96.7012L60.3879 94.8506C60.6916 93.8191 61.3901 91.8472 61.9368 90.4213L62.9694 87.873L61.2079 85.3854C59.3553 82.7764 53.4937 76.3448 52.9774 76.3448C52.8255 76.3448 51.6107 77.437 50.3047 78.7718Z" fill="#093697"/>
<path d="M112.96 78.2259C109.771 81.5327 107.979 83.6563 106.43 85.9619L104.942 88.1766L105.519 89.299C105.823 89.9361 106.552 91.8474 107.098 93.5159L108.101 96.6103L109.285 94.2744C110.5 91.8777 113.324 87.7822 114.509 86.6597L115.177 86.0226L116.331 87.3271C119.429 90.9373 121.889 95.5182 123.134 99.9474L123.742 102.132H122.527C121.342 102.132 121.342 102.132 121.342 103.315C121.342 104.65 122.375 106.682 123.043 106.682C123.408 106.682 123.468 109.2 123.529 122.367L123.62 138.081L126.9 138.172L130.15 138.263V122.458C130.15 106.834 130.15 106.682 130.757 106.682C131.152 106.682 131.547 106.318 131.881 105.621C132.154 105.044 132.58 104.559 132.792 104.559C133.066 104.559 133.187 104.134 133.187 103.345V102.132H131.669C130.211 102.132 130.15 102.101 130.15 101.282C130.15 99.9171 128.966 95.8216 127.903 93.3339C126.597 90.4215 124.531 86.9024 122.436 84.1114C120.371 81.4113 115.633 76.345 115.147 76.345C114.965 76.345 113.962 77.1945 112.96 78.2259Z" fill="#093697"/>
</svg>
