<svg width="502" height="98" viewBox="0 0 502 98" fill="none" xmlns="http://www.w3.org/2000/svg">
<path d="M1 56.5778C40.1872 31.2097 56.7452 18.5256 111.938 26.2463C167.132 33.967 241.821 109.582 329.952 95.1814C384.66 86.2422 431.875 48.857 458 33.967" stroke="#343434" stroke-width="2" stroke-dasharray="10 5"/>
<g clip-path="url(#clip0)">
<path d="M462.837 39.1456L468.337 28.6849L457.854 23.2288L462.767 13.837L473.227 19.3371L478.683 8.85343L488.075 13.7665L482.575 24.2271L493.059 29.6832L488.146 39.0751L477.685 33.5749L472.229 44.0586L462.837 39.1456ZM476.197 28.8234L486.653 34.3068L488.291 31.1761L477.824 25.7148L483.307 15.2594L480.176 13.6217L474.715 24.0887L464.26 18.6053L462.622 21.7359L473.089 27.1972L467.606 37.6526L470.736 39.2903L476.197 28.8234Z" fill="#343434"/>
</g>
<defs>
<clipPath id="clip0">
<rect width="42.2245" height="42.2245" fill="white" transform="translate(449 12.6165) rotate(-17.3853)"/>
</clipPath>
</defs>
</svg>
