<svg width="38" height="39" viewBox="0 0 38 39" fill="none" xmlns="http://www.w3.org/2000/svg">
<path d="M16.2164 28.6764C19.0882 28.6764 21.7282 27.6885 23.8346 26.0504L30.6733 32.8891L32.873 30.6894L26.0343 23.8507C27.6739 21.7428 28.6618 19.1028 28.6618 16.231C28.6618 9.36895 23.0785 3.78564 16.2164 3.78564C9.35436 3.78564 3.77106 9.36895 3.77106 16.231C3.77106 23.0931 9.35436 28.6764 16.2164 28.6764ZM16.2164 6.89699C21.3641 6.89699 25.5505 11.0833 25.5505 16.231C25.5505 21.3787 21.3641 25.565 16.2164 25.565C11.0687 25.565 6.8824 21.3787 6.8824 16.231C6.8824 11.0833 11.0687 6.89699 16.2164 6.89699Z" fill="white"/>
<path d="M18.4131 14.0313C19.0027 14.6224 19.3278 15.4034 19.3278 16.231H22.4391C22.4391 14.5742 21.792 13.0123 20.6128 11.8316C18.2575 9.4794 14.1739 9.4794 11.8201 11.8316L14.0167 14.0344C15.199 12.8552 17.237 12.8583 18.4131 14.0313Z" fill="white"/>
</svg>
