<svg width="28" height="28" viewBox="0 0 28 28" fill="none" xmlns="http://www.w3.org/2000/svg">
<path d="M23.3333 3.5H4.66667C4.0215 3.5 3.5 4.02267 3.5 4.66667V23.3333C3.5 23.9773 4.0215 24.5 4.66667 24.5H14.7175V16.38H11.9898V13.2008H14.7175V10.8675C14.7175 8.155 16.3742 6.67683 18.8008 6.67683C19.6163 6.6745 20.433 6.7165 21.245 6.80167V9.625H19.5708C18.2548 9.625 17.9982 10.2527 17.9982 11.1708V13.195H21.1447L20.7363 16.3742H17.997V24.5H23.3333C23.9785 24.5 24.5 23.9773 24.5 23.3333V4.66667C24.5 4.02267 23.9785 3.5 23.3333 3.5Z" fill="white"/>
</svg>
