<svg width="28" height="28" viewBox="0 0 28 28" fill="none" xmlns="http://www.w3.org/2000/svg">
<path d="M24.4382 9.68912C24.4253 8.80595 24.262 7.92978 23.9493 7.10378C23.4022 5.69328 22.288 4.57795 20.8775 4.03195C20.062 3.72512 19.1998 3.56062 18.3272 3.54195C17.2048 3.49178 16.849 3.47778 14 3.47778C11.151 3.47778 10.7858 3.47778 9.67167 3.54195C8.80017 3.56062 7.93801 3.72512 7.12251 4.03195C5.71201 4.57795 4.59667 5.69328 4.05067 7.10378C3.74384 7.91928 3.57817 8.78145 3.56184 9.65295C3.51167 10.7765 3.49651 11.1323 3.49651 13.9813C3.49651 16.8303 3.49651 17.1943 3.56184 18.3096C3.57934 19.1823 3.74384 20.0433 4.05067 20.8611C4.59784 22.2705 5.71201 23.3858 7.12367 23.9318C7.93567 24.2491 8.79784 24.4288 9.67284 24.4568C10.7963 24.507 11.1522 24.5221 14.0012 24.5221C16.8502 24.5221 17.2153 24.5221 18.3295 24.4568C19.201 24.4393 20.0632 24.2748 20.8798 23.968C22.2903 23.4208 23.4045 22.3055 23.9517 20.8961C24.2585 20.0795 24.423 19.2185 24.4405 18.3446C24.4907 17.2223 24.5058 16.8665 24.5058 14.0163C24.5035 11.1673 24.5035 10.8056 24.4382 9.68912ZM13.993 19.369C11.0133 19.369 8.59951 16.9551 8.59951 13.9755C8.59951 10.9958 11.0133 8.58195 13.993 8.58195C16.9703 8.58195 19.3865 10.9958 19.3865 13.9755C19.3865 16.9551 16.9703 19.369 13.993 19.369ZM19.6012 9.64012C18.9047 9.64012 18.3435 9.07778 18.3435 8.38245C18.3435 7.68712 18.9047 7.12478 19.6012 7.12478C20.2953 7.12478 20.8577 7.68712 20.8577 8.38245C20.8577 9.07778 20.2953 9.64012 19.6012 9.64012Z" fill="white"/>
<path d="M13.993 17.4789C15.9279 17.4789 17.4965 15.9104 17.4965 13.9754C17.4965 12.0405 15.9279 10.4719 13.993 10.4719C12.0581 10.4719 10.4895 12.0405 10.4895 13.9754C10.4895 15.9104 12.0581 17.4789 13.993 17.4789Z" fill="white"/>
</svg>
