<svg width="41" height="41" viewBox="0 0 41 41" fill="none" xmlns="http://www.w3.org/2000/svg">
<path d="M20.5 3.48495C11.1041 3.48495 3.41663 11.1554 3.41663 20.6025C3.41663 29.1441 9.66913 36.2337 17.835 37.5149V25.5566H13.4958V20.6025H17.835V16.827C17.835 12.5391 20.3804 10.1816 24.2925 10.1816C26.1545 10.1816 28.102 10.5062 28.102 10.5062V14.7258H25.9495C23.8312 14.7258 23.165 16.0412 23.165 17.3908V20.6025H27.9141L27.1454 25.5566H23.165V37.5149C27.1905 36.8792 30.8562 34.8252 33.5003 31.7238C36.1443 28.6224 37.5924 24.6779 37.5833 20.6025C37.5833 11.1554 29.8958 3.48495 20.5 3.48495Z" fill="white"/>
</svg>
