<svg width="49" height="49" viewBox="0 0 49 49" fill="none" xmlns="http://www.w3.org/2000/svg">
<path d="M45.5 0.875H3.5C2.04838 0.875 0.875 2.051 0.875 3.5V45.5C0.875 46.949 2.04838 48.125 3.5 48.125H26.1144V29.855H19.9771V22.7019H26.1144V17.4519C26.1144 11.3487 29.8419 8.02288 35.3019 8.02288C37.1367 8.01763 38.9742 8.11212 40.8012 8.30375V14.6562H37.0344C34.0734 14.6562 33.4959 16.0685 33.4959 18.1344V22.6888H40.5755L39.6567 29.8419H33.4932V48.125H45.5C46.9516 48.125 48.125 46.949 48.125 45.5V3.5C48.125 2.051 46.9516 0.875 45.5 0.875Z" fill="#093697"/>
</svg>
