<svg width="36" height="36" viewBox="0 0 36 36" fill="none" xmlns="http://www.w3.org/2000/svg">
<circle cx="18.0001" cy="18.0001" r="18" fill="white"/>
<path fill-rule="evenodd" clip-rule="evenodd" d="M28.0225 18.2149C28.0225 17.5446 27.9623 16.9001 27.8506 16.2813H18.9475V19.9379H24.035C23.8159 21.1196 23.1498 22.1207 22.1487 22.7911V25.1629H25.2037C26.9912 23.5172 28.0225 21.0938 28.0225 18.2149Z" fill="#4285F4"/>
<path fill-rule="evenodd" clip-rule="evenodd" d="M18.9475 27.453C21.4998 27.453 23.6397 26.6065 25.2037 25.1628L22.1487 22.7909C21.3022 23.3581 20.2194 23.6933 18.9475 23.6933C16.4854 23.6933 14.4014 22.0304 13.6581 19.796H10.4999V22.2452C12.0553 25.3347 15.2522 27.453 18.9475 27.453Z" fill="#34A853"/>
<path fill-rule="evenodd" clip-rule="evenodd" d="M13.658 19.7961C13.469 19.2289 13.3616 18.6231 13.3616 18C13.3616 17.377 13.469 16.7711 13.658 16.2039V13.7547H10.4999C9.85962 15.0309 9.49438 16.4746 9.49438 18C9.49438 19.5254 9.85962 20.9692 10.4999 22.2453L13.658 19.7961Z" fill="#FBBC05"/>
<path fill-rule="evenodd" clip-rule="evenodd" d="M18.9475 12.3067C20.3354 12.3067 21.5815 12.7836 22.5612 13.7204L25.2725 11.009C23.6354 9.48365 21.4955 8.54694 18.9475 8.54694C15.2522 8.54694 12.0553 10.6653 10.4999 13.7547L13.6581 16.2039C14.4014 13.9696 16.4854 12.3067 18.9475 12.3067Z" fill="#EA4335"/>
</svg>
