<svg width="45" height="41" viewBox="0 0 45 41" fill="none" xmlns="http://www.w3.org/2000/svg">
<path d="M22.4999 4.14728C20.0619 1.9257 16.9526 0.706696 13.6754 0.706696C10.1907 0.706696 6.89144 2.08249 4.37173 4.58895C-0.82448 9.80724 -0.822272 17.9692 4.37615 23.1654L20.5676 39.3569C20.9431 40.0172 21.6674 40.4434 22.4999 40.4434C23.211 40.4434 23.8448 40.0835 24.2489 39.5402L40.6237 23.1654C45.8222 17.967 45.8221 9.80724 40.6193 4.58011C38.1084 2.08249 34.8092 0.706696 31.3244 0.706696C28.0495 0.706696 24.9379 1.9257 22.4999 4.14728ZM37.4967 7.7027C40.9484 11.172 40.9506 16.5912 37.5011 20.0429L22.4999 35.0441L7.49873 20.0429C4.04931 16.5912 4.05152 11.172 7.49431 7.71153C9.17265 6.04203 11.3677 5.12336 13.6754 5.12336C15.9831 5.12336 18.1694 6.04203 19.8345 7.70711L20.9386 8.81128C21.8021 9.67474 23.1978 9.67474 24.0612 8.81128L25.1654 7.70711C28.5044 4.37474 34.1621 4.38357 37.4967 7.7027Z" fill="#093697"/>
</svg>
