<svg width="47" height="47" viewBox="0 0 47 47" fill="none" xmlns="http://www.w3.org/2000/svg">
<rect width="47" height="47" rx="3" fill="#093697"/>
<path d="M35.9179 17.732C35.9377 17.9841 35.9377 18.2349 35.9377 18.4856C35.9377 26.1585 29.7506 35 18.4433 35C14.9597 35 11.7234 34.0476 9 32.3934C9.49461 32.4467 9.97089 32.4654 10.4853 32.4654C13.3599 32.4654 16.0054 31.549 18.1197 29.9856C15.4161 29.9323 13.1507 28.2608 12.3691 25.9611C12.7492 26.0144 13.1309 26.0504 13.5308 26.0504C14.0819 26.0504 14.6361 25.9784 15.1505 25.853C12.331 25.3141 10.2197 22.9784 10.2197 20.1571V20.085C11.0395 20.5159 11.9905 20.7853 12.9981 20.8213C11.3417 19.781 10.2564 18.0014 10.2564 15.9885C10.2564 14.9107 10.5601 13.9222 11.0929 13.0605C14.1201 16.5807 18.6708 18.8818 23.7725 19.134C23.6779 18.7017 23.6199 18.2536 23.6199 17.804C23.6199 14.6052 26.3616 12 29.7689 12C31.5397 12 33.138 12.7003 34.2616 13.8329C35.6507 13.5807 36.9819 13.0951 38.1634 12.4308C37.707 13.7781 36.7346 14.9107 35.4599 15.6297C36.6979 15.5029 37.8978 15.1801 39 14.7305C38.1634 15.8804 37.1177 16.9049 35.9179 17.732Z" fill="white"/>
</svg>
